PathFileType	4	(X/Y/Z)	15_1_23_p0_0-370.trc
DataRate	CameraRate	NumFrames	NumMarkers	Units	OrigDataRate	OrigDataStartFrame	OrigNumFrames
56.0	56.0	7	27	m	56.0	324	371
Frame#	Time	RHip			RKnee			RAnkle			RBigToe			RSmallToe			RHeel			LHip			LKnee			LAnkle			LBigToe			LSmallToe			LHeel			Neck			Head			Nose			RShoulder			RElbow			RWrist			RThumb			RIndex			RPinky			LShoulder			LElbow			LWrist			LThumb			LIndex			LPinky			
		X1	Y1	Z1	X2	Y2	Z2	X3	Y3	Z3	X4	Y4	Z4	X5	Y5	Z5	X6	Y6	Z6	X7	Y7	Z7	X8	Y8	Z8	X9	Y9	Z9	X10	Y10	Z10	X11	Y11	Z11	X12	Y12	Z12	X13	Y13	Z13	X14	Y14	Z14	X15	Y15	Z15	X16	Y16	Z16	X17	Y17	Z17	X18	Y18	Z18	X19	Y19	Z19	X20	Y20	Z20	X21	Y21	Z21	X22	Y22	Z22	X23	Y23	Z23	X24	Y24	Z24	X25	Y25	Z25	X26	Y26	Z26	X27	Y27	Z27	
324	5.785714285714286	0.24421966432151296	0.2926010049595619	1.0659713767623051	0.2583591758466935	0.2579852370848171	1.5156583836456425	0.27630532414986614	0.2198824499785402	1.9141332824738304	0.237632570002713	0.02644904216678141	1.8964971185937425	0.3113220028265707	0.04212094247541143	1.8921560547536482	0.25784813732570566	0.2829502939210031	1.9796905259813977	0.012122324421754089	0.3131822294383941	1.0810705304173425	0.036631314854388135	0.27055666800452444	1.5241254478259614	0.062302766176948375	0.2397102661745746	1.8983454565922124	0.07662661408388759	0.04417411622266629	1.917287834414965	0.028321851943610938	0.0939574497318952	1.9337452578277916	0.08946193232129805	0.2919763620734706	1.9639876646874763	0.10639553099283318	0.46121612183901634	0.5529590962405349	0.0931950385976265	0.44505621551375135	0.29172118989019674	0.07206608992755911	0.3443924175292599	0.40775349959777407	0.25851504450910584	0.39765733532594405	0.609396802577311	0.3517286161467842	0.3387323667446757	0.8611389530796445	0.3446223856409075	0.23065143768413846	1.0561451059183777	0.26925633041777863	0.19609755177642788	1.1707983948232472	0.28997923609246096	0.20948210296305345	1.2033416673153228	0.3368299221790132	0.23826219283487038	1.2274380408285412	-0.04416884074032473	0.4281717104588691	0.617994422469047	-0.10050936701677747	0.41106534451550963	0.8844921348592197	-0.08081343864782871	0.2632480882608035	1.0680570981146982	-0.020104930900278647	0.23981676823031695	1.1544212598560895	-0.04063529090992241	0.23566618115258425	1.1937079796555408	-0.08968323819914355	0.2660618728567671	1.194174250123169
325	5.803571428571429	0.24429095018186733	0.29248928375115457	1.0659962039243074	0.2628850367005895	0.2697868750292954	1.5197839044598138	0.28136203930132364	0.2310247224025288	1.923953207595838	0.2378736043541902	0.023829562908268966	1.900043834434204	0.31095586281875137	0.04099016340160033	1.8921715534923247	0.25865171967123357	0.2836436893943326	1.9815191819634272	0.015564497572495426	0.32365532408986597	1.0867869310145386	0.03672479146957018	0.2706773013992345	1.5243141545447432	0.06234514630322984	0.23954271942252134	1.8984355113553444	0.07651309498753558	0.04410495749832329	1.9171223523093837	0.028108252332231246	0.09416932995165166	1.9344244524772596	0.08945908792843793	0.29184618982208643	1.9641440411811824	0.10639604867748378	0.46126733664785974	0.553018009575521	0.09324879892269848	0.4450437687125545	0.2917494203491234	0.07213374175833223	0.3443531832382574	0.4077556097062532	0.2630071440481726	0.4074384489583891	0.6126647619285358	0.3525994948352065	0.3380473941078039	0.8649335951413675	0.34512146867559185	0.22954381739395216	1.0599961689871715	0.2692606414746249	0.19662008803391207	1.171274343465253	0.2890055925023236	0.2080333959872036	1.203982801500668	0.3360181554769354	0.23910782518623394	1.2287135554712274	-0.0436718880769636	0.42816569507883817	0.6214465283019699	-0.1004675167178782	0.41112535490758245	0.8846281521517436	-0.08505583338283033	0.2738940124572403	1.0777326553253987	-0.019751905214600022	0.24064655646579405	1.1512943138372262	-0.04065676508232431	0.235385415693046	1.1935572591756665	-0.0906574766652757	0.2646403546334374	1.1931898087392665
326	5.821428571428571	0.23975102276252724	0.29094100527807687	1.0655794896178468	0.25802754539468326	0.25956780015506864	1.512372124986499	0.281151013989821	0.23093849722254903	1.9235773503707072	0.23811264770714818	0.024770228319866222	1.900111195220275	0.30659327635339473	0.0400579807763431	1.8906155669969014	0.2548447088819518	0.29778049918798316	1.993677069063202	0.015545345899724585	0.32369771664604136	1.0866956657045295	0.035741172102307865	0.270797578708368	1.5193672041067705	0.06283447062889241	0.23789292319071265	1.901921279251165	0.07627850234460228	0.044846908948752186	1.9161126107331055	0.028977404310310664	0.09268978020953085	1.937019532410004	0.0899041326970536	0.29026541823643853	1.9672367040521244	0.10641341893769221	0.461277248024656	0.5530034361956353	0.09324004280240512	0.44502995503485865	0.29172202403424724	0.07213293085167294	0.34433171502350407	0.4077379560589902	0.26304436240566637	0.4073599299424257	0.6126558452739845	0.3526947458108035	0.3382135226603627	0.8651517691892601	0.34551508543106296	0.23055830305509525	1.0599085525891527	0.2687427688032414	0.1979999255006928	1.1672428110208632	0.28899741390690514	0.20819406965944706	1.2037016165695713	0.3328935317824701	0.2520448349294271	1.2328156071078828	-0.04381949134001536	0.42769826638451963	0.621620773499495	-0.10046150104363254	0.4111971783363999	0.8847231894064036	-0.08466627257551543	0.2748041044378413	1.0747606564040144	-0.01974096450516506	0.24059356103222607	1.1512219023799233	-0.04078288746345541	0.2354686452189183	1.1932656706924867	-0.09061280930100757	0.26461977722525903	1.1930465609408785
327	5.839285714285714	0.2397296062084087	0.29095006130554535	1.0656780524471903	0.2584773581811215	0.25810328897206275	1.5159083232886414	0.28129960777719004	0.230876485301848	1.923792405556653	0.23754014402078322	0.026514386742279693	1.8966721830551843	0.31123339196068095	0.042306691966577444	1.892418128615199	0.2582102866823036	0.28305409037647766	1.9803025741961182	0.015611726497565247	0.3236936782003668	1.0867073453772875	0.03672278005401337	0.2706400528131151	1.5241788973630885	0.06287325174653043	0.2378967883567622	1.9018870841951976	0.07639817950803977	0.04465271763950607	1.9166101356020133	0.028981501893984442	0.09234409410603553	1.9368474213975657	0.0937257017202069	0.27813495302257046	1.9517447358928042	0.10642666989483725	0.46122973162313097	0.5530002107332688	0.09326978815851841	0.4449589657546478	0.29174884789596256	0.07217628365128984	0.3443346009440547	0.40779020208437167	0.2630586161021674	0.4074154727703229	0.6127451301039525	0.35287434979407184	0.3384524294828182	0.8654461519066856	0.3445502428984147	0.2306671073014246	1.0560492162937674	0.2686129612798992	0.1979811754063993	1.167272420411245	0.28892640069860404	0.20784404774224408	1.20416325488323	0.3332042628488313	0.2507895690388166	1.2366912870826856	-0.04335388927655453	0.4274927483160255	0.6250233285005027	-0.10071303706551395	0.41213817578397904	0.8813923372377203	-0.08466754354649332	0.27502954333917534	1.0748986762882704	-0.02349615728651586	0.25129857708580733	1.157829672019388	-0.04070942096403898	0.23571736864237353	1.193596440004803	-0.09023632675106193	0.26561959624721093	1.1902069386757108
328	5.857142857142857	0.23970373674268833	0.2910494570281852	1.065886322538656	0.2584272355140514	0.2580873277568479	1.5161035676761363	0.28129114365985314	0.23095040904770156	1.9239612989528097	0.237530202742317	0.026664186861715934	1.8970124924161997	0.3064861254439849	0.04037518291511922	1.8909519272664663	0.2582877670159108	0.2832330353944073	1.9806981234763603	0.01641032117113912	0.3237185858797259	1.0915429676541204	0.0367110753733757	0.27057161443597916	1.5242899876168197	0.06285274932627002	0.23769471414279542	1.902108337905823	0.07635062430374785	0.04404347572266509	1.9162171527858156	0.02875389216664482	0.09268613759121089	1.9379640983569808	0.09358408839317152	0.27774685401898286	1.9524631350888746	0.10991219314732191	0.44926594406471254	0.5488059240026631	0.0932774841150481	0.4448429867928199	0.29169868634716056	0.07224997181748147	0.34430442225782115	0.4078990221228524	0.26313493700276214	0.40754983577174647	0.6127968643493498	0.34977020356974964	0.3512317970762188	0.8714302231883975	0.3400417751072139	0.22114363293992262	1.0510124791076996	0.27064182163389955	0.2004324749641521	1.1729568864320385	0.2890515312013324	0.20795891716998804	1.2040997561185078	0.33311814287241115	0.25075025636926696	1.2368117352444672	-0.04329512299596781	0.4276623485465375	0.625082047487035	-0.10094672588953205	0.41102535418296965	0.8844602048633096	-0.08467583606265511	0.2751393884628535	1.074958201377908	-0.0236378431274209	0.25138796113924694	1.157874290628814	-0.04096946695869792	0.23569508889185928	1.1931485157893766	-0.09018251851571202	0.2653731933201432	1.1899216368476278
329	5.875	0.2397276718431232	0.2907843183501275	1.065771622303355	0.25712617648576125	0.25795414931055594	1.5111715375943933	0.28142480687643073	0.23106869980827713	1.9239867915789373	0.24220367162740333	0.036301753558044235	1.9051518433765742	0.31172316489113955	0.04331360767312175	1.8924033761965162	0.258650028357321	0.2839254615188844	1.9817384766499255	0.020268908865933768	0.31123213948546513	1.0844244274036952	0.035694950318383586	0.2705967217328385	1.5193028223498168	0.06225972225386115	0.2392651244796341	1.8985190255648579	0.07672941696311557	0.04303035478595299	1.9178679945107975	0.027604910910909015	0.09428557042863263	1.9362897969859627	0.08782970503586165	0.2916268830257265	1.9671391771480702	0.10991877254954929	0.44907784454247507	0.5486237453497291	0.09706575715140642	0.4462619641154744	0.2918188651028625	0.07231092276168485	0.34437105792593675	0.4078432507331253	0.2631535961490892	0.4074799202712968	0.6127450307298599	0.3522405747145676	0.33862452087990713	0.8651732891546142	0.3400909264927686	0.22099997749271927	1.0509413976773643	0.2691152003567047	0.1964974267037309	1.1710136670712983	0.28888442070304476	0.20820457592895833	1.2038801890435704	0.33163015350894703	0.23735399410511246	1.2327313286443684	-0.04336422945121802	0.4273836156241294	0.6250422274937393	-0.10068504379967029	0.4121656119501501	0.8812137016088738	-0.08469137068204034	0.2751224321668017	1.0748952157404348	-0.023600587800336876	0.25165114452908477	1.1579014609256837	-0.04055775535521053	0.23709901571018868	1.189777087875813	-0.0831293866404135	0.26419922623061093	1.1921520308666032
330	5.892857142857143	0.2397537762671897	0.29083163854453875	1.065848728677278	0.25839574217730965	0.25800867534140864	1.5159576773604362	0.281292099065316	0.23115461255857567	1.923945257051803	0.2424389240153365	0.03712494688935855	1.9041708711209389	0.31227877925746605	0.04456700689467419	1.8920764786945323	0.2579859981138022	0.283735752463608	1.9804296588902606	0.020284357319859517	0.3111871116697153	1.0842768941717285	0.035951202397596076	0.2695523314301568	1.52826271002903	0.06235655815540045	0.23911365918038446	1.8987484107338939	0.07647327064162016	0.0442430405756792	1.9168563080043277	0.02824388477777251	0.09430804423954275	1.9340948364146098	0.09276384682682913	0.2771234175411323	1.9566433755728456	0.10992579721332137	0.4491072945559023	0.548648617115725	0.0971187067185919	0.446346988892208	0.2918650867829244	0.07232498316043903	0.34435133911779314	0.4078457333126796	0.2631935727100964	0.40758428245820005	0.6127785204958777	0.34995394568196947	0.3520539706629929	0.8680157047760111	0.34453991880493184	0.23055888687041462	1.0559063781552094	0.26903303832858516	0.19644901533302309	1.171024175255759	0.2888460386845267	0.20790537827285202	1.2038380184385489	0.3305217351849823	0.23729978655040065	1.2283634865389403	-0.04333582915071532	0.42735721443430497	0.6250301115048618	-0.10069791917965618	0.4121553781729742	0.88119108553178	-0.08471092030555868	0.2750365132929174	1.0748187374957225	-0.023617598490499825	0.2514133389047248	1.15777277519675	-0.040647676025581614	0.23709105056104518	1.1895647633671602	-0.08310874862105291	0.2641990225775739	1.1920852711894885
